<svg id="Layer_1" data-name="Layer 1" xmlns="http://www.w3.org/2000/svg" viewBox="0 0 512 417"><defs><style>.cls-1{fill:#a7f8fc;}.cls-2{fill:#6deefc;}.cls-3{fill:#0ed2f7;}</style></defs><title>Artboard 1</title><path class="cls-1" d="M.41,32V0h32V32Z"/><path class="cls-2" d="M64.33,32V0h32V32Z"/><path class="cls-3" d="M208.15,0c132.17,0,239.7,107.54,239.7,239.71L447.46,397l-32,1,.43-158.25C415.89,125.15,322.69,32,208.15,32h-79.9V0Z"/><polygon class="cls-3" points="431.93 416.95 511.95 336.94 352.37 336.49 431.93 416.95"/><path class="cls-2" d="M383.93,239.7H352c0-79.3-64.51-143.82-143.82-143.82v-32C305.08,63.92,383.93,142.78,383.93,239.7Z"/><path class="cls-1" d="M351.94,303.88v-32h32v32Z"/></svg>