<svg id="Layer_1" data-name="Layer 1" xmlns="http://www.w3.org/2000/svg" viewBox="0 0 512 417"><defs><style>.cls-1{fill:#a7f8fc;}.cls-2{fill:#6deefc;}.cls-3{fill:#0ed2f7;}</style></defs><title>arrow_left_down</title><path class="cls-1" d="M480,32V0h32V32Z"/><path class="cls-2" d="M416.06,32V0h32V32Z"/><path class="cls-3" d="M384.1,0V32H304.2C189.66,32,96.46,125.15,96.46,239.7L96.9,398l-32-1L64.5,239.7C64.5,107.53,172,0,304.2,0Z"/><polygon class="cls-3" points="80.42 416.95 0.41 336.94 159.99 336.49 80.42 416.95"/><path class="cls-2" d="M304.2,63.92v32c-79.3,0-143.82,64.52-143.82,143.82h-32C128.42,142.78,207.27,63.92,304.2,63.92Z"/><path class="cls-1" d="M128.45,303.88v-32h32v32Z"/></svg>